<mxfile host="Electron" agent="Mozilla/5.0 (Windows NT 10.0; Win64; x64) AppleWebKit/537.36 (KHTML, like Gecko) draw.io/24.7.17 Chrome/128.0.6613.36 Electron/32.0.1 Safari/537.36" version="24.7.17">
  <diagram name="Page-1" id="H8HghSFyjwrBQapLqmxm">
    <mxGraphModel dx="1154" dy="577" grid="1" gridSize="10" guides="1" tooltips="1" connect="1" arrows="1" fold="1" page="1" pageScale="1" pageWidth="850" pageHeight="1100" math="0" shadow="0">
      <root>
        <mxCell id="0" />
        <mxCell id="1" parent="0" />
        <mxCell id="pBWiBaH7_3x2LlP5s_Fs-7" value="" style="edgeStyle=orthogonalEdgeStyle;rounded=0;orthogonalLoop=1;jettySize=auto;html=1;" parent="1" target="pBWiBaH7_3x2LlP5s_Fs-6" edge="1">
          <mxGeometry relative="1" as="geometry">
            <mxPoint x="424.9999999999998" y="140.0000000000001" as="sourcePoint" />
          </mxGeometry>
        </mxCell>
        <mxCell id="pBWiBaH7_3x2LlP5s_Fs-5" value="" style="endArrow=classic;html=1;rounded=0;" parent="1" edge="1">
          <mxGeometry width="50" height="50" relative="1" as="geometry">
            <mxPoint x="440" y="240" as="sourcePoint" />
            <mxPoint x="490" y="240" as="targetPoint" />
          </mxGeometry>
        </mxCell>
        <mxCell id="pBWiBaH7_3x2LlP5s_Fs-10" value="" style="edgeStyle=orthogonalEdgeStyle;rounded=0;orthogonalLoop=1;jettySize=auto;html=1;" parent="1" source="pBWiBaH7_3x2LlP5s_Fs-6" target="pBWiBaH7_3x2LlP5s_Fs-9" edge="1">
          <mxGeometry relative="1" as="geometry" />
        </mxCell>
        <mxCell id="pBWiBaH7_3x2LlP5s_Fs-6" value="&lt;div&gt;Output&lt;/div&gt;&quot;Masukkan nilai&lt;div&gt;Matrix&quot;&lt;/div&gt;" style="shape=parallelogram;perimeter=parallelogramPerimeter;whiteSpace=wrap;html=1;fixedSize=1;" parent="1" vertex="1">
          <mxGeometry x="365" y="180" width="120" height="60" as="geometry" />
        </mxCell>
        <mxCell id="pBWiBaH7_3x2LlP5s_Fs-8" value="Start" style="ellipse;whiteSpace=wrap;html=1;" parent="1" vertex="1">
          <mxGeometry x="365" y="60" width="120" height="80" as="geometry" />
        </mxCell>
        <mxCell id="JqmU150wI0xbI7yhX1SX-2" value="" style="edgeStyle=orthogonalEdgeStyle;rounded=0;orthogonalLoop=1;jettySize=auto;html=1;" edge="1" parent="1" source="JqmU150wI0xbI7yhX1SX-3" target="JqmU150wI0xbI7yhX1SX-1">
          <mxGeometry relative="1" as="geometry" />
        </mxCell>
        <mxCell id="JqmU150wI0xbI7yhX1SX-24" value="" style="edgeStyle=orthogonalEdgeStyle;rounded=0;orthogonalLoop=1;jettySize=auto;html=1;" edge="1" parent="1" source="pBWiBaH7_3x2LlP5s_Fs-9" target="JqmU150wI0xbI7yhX1SX-20">
          <mxGeometry relative="1" as="geometry" />
        </mxCell>
        <mxCell id="pBWiBaH7_3x2LlP5s_Fs-9" value="Input nilai dalam&lt;div&gt;matrix bedasarkan&lt;/div&gt;&lt;div&gt;kolom dan baris&lt;/div&gt;" style="shape=parallelogram;perimeter=parallelogramPerimeter;whiteSpace=wrap;html=1;fixedSize=1;" parent="1" vertex="1">
          <mxGeometry x="353" y="280" width="145" height="80" as="geometry" />
        </mxCell>
        <mxCell id="pBWiBaH7_3x2LlP5s_Fs-11" value="" style="endArrow=classic;html=1;rounded=0;" parent="1" edge="1">
          <mxGeometry width="50" height="50" relative="1" as="geometry">
            <mxPoint x="350" y="280" as="sourcePoint" />
            <mxPoint x="380" y="280" as="targetPoint" />
          </mxGeometry>
        </mxCell>
        <mxCell id="JqmU150wI0xbI7yhX1SX-7" value="" style="edgeStyle=orthogonalEdgeStyle;rounded=0;orthogonalLoop=1;jettySize=auto;html=1;" edge="1" parent="1" source="JqmU150wI0xbI7yhX1SX-1" target="JqmU150wI0xbI7yhX1SX-6">
          <mxGeometry relative="1" as="geometry" />
        </mxCell>
        <mxCell id="JqmU150wI0xbI7yhX1SX-1" value="Menghitung determinan" style="whiteSpace=wrap;html=1;" vertex="1" parent="1">
          <mxGeometry x="365.5" y="720" width="120" height="60" as="geometry" />
        </mxCell>
        <mxCell id="JqmU150wI0xbI7yhX1SX-3" value="&lt;div&gt;Output&lt;/div&gt;Nilai matrix&lt;div&gt;yang dimasukkan&lt;/div&gt;" style="shape=parallelogram;perimeter=parallelogramPerimeter;whiteSpace=wrap;html=1;fixedSize=1;" vertex="1" parent="1">
          <mxGeometry x="358" y="620" width="135" height="60" as="geometry" />
        </mxCell>
        <mxCell id="JqmU150wI0xbI7yhX1SX-5" value="" style="endArrow=classic;html=1;rounded=0;" edge="1" parent="1">
          <mxGeometry width="50" height="50" relative="1" as="geometry">
            <mxPoint x="448" y="680" as="sourcePoint" />
            <mxPoint x="498" y="680" as="targetPoint" />
          </mxGeometry>
        </mxCell>
        <mxCell id="JqmU150wI0xbI7yhX1SX-8" style="edgeStyle=orthogonalEdgeStyle;rounded=0;orthogonalLoop=1;jettySize=auto;html=1;" edge="1" parent="1" source="JqmU150wI0xbI7yhX1SX-14">
          <mxGeometry relative="1" as="geometry">
            <mxPoint x="560" y="960" as="targetPoint" />
          </mxGeometry>
        </mxCell>
        <mxCell id="JqmU150wI0xbI7yhX1SX-18" style="edgeStyle=orthogonalEdgeStyle;rounded=0;orthogonalLoop=1;jettySize=auto;html=1;" edge="1" parent="1" source="JqmU150wI0xbI7yhX1SX-6">
          <mxGeometry relative="1" as="geometry">
            <mxPoint x="269.9999999999998" y="950" as="targetPoint" />
          </mxGeometry>
        </mxCell>
        <mxCell id="JqmU150wI0xbI7yhX1SX-6" value="if det = 0" style="rhombus;whiteSpace=wrap;html=1;" vertex="1" parent="1">
          <mxGeometry x="374" y="830" width="103" height="90" as="geometry" />
        </mxCell>
        <mxCell id="JqmU150wI0xbI7yhX1SX-40" style="edgeStyle=orthogonalEdgeStyle;rounded=0;orthogonalLoop=1;jettySize=auto;html=1;entryX=0.5;entryY=0;entryDx=0;entryDy=0;" edge="1" parent="1" source="JqmU150wI0xbI7yhX1SX-9" target="JqmU150wI0xbI7yhX1SX-12">
          <mxGeometry relative="1" as="geometry">
            <Array as="points">
              <mxPoint x="558" y="1150" />
              <mxPoint x="425" y="1150" />
            </Array>
          </mxGeometry>
        </mxCell>
        <mxCell id="JqmU150wI0xbI7yhX1SX-9" value="&lt;div&gt;Output&lt;/div&gt;&lt;div&gt;&quot;Tidak dapat&lt;/div&gt;&lt;div&gt;menghitung invers&lt;/div&gt;&lt;div&gt;matrix&quot;&lt;/div&gt;" style="shape=parallelogram;perimeter=parallelogramPerimeter;whiteSpace=wrap;html=1;fixedSize=1;" vertex="1" parent="1">
          <mxGeometry x="485" y="960" width="147" height="70" as="geometry" />
        </mxCell>
        <mxCell id="JqmU150wI0xbI7yhX1SX-10" value="" style="endArrow=classic;html=1;rounded=0;" edge="1" parent="1">
          <mxGeometry width="50" height="50" relative="1" as="geometry">
            <mxPoint x="590" y="1030" as="sourcePoint" />
            <mxPoint x="640" y="1030" as="targetPoint" />
          </mxGeometry>
        </mxCell>
        <mxCell id="JqmU150wI0xbI7yhX1SX-12" value="End" style="ellipse;whiteSpace=wrap;html=1;" vertex="1" parent="1">
          <mxGeometry x="365" y="1200" width="120" height="80" as="geometry" />
        </mxCell>
        <mxCell id="JqmU150wI0xbI7yhX1SX-14" value="Yes" style="text;html=1;align=center;verticalAlign=middle;whiteSpace=wrap;rounded=0;" vertex="1" parent="1">
          <mxGeometry x="530" y="900" width="58.5" height="30" as="geometry" />
        </mxCell>
        <mxCell id="JqmU150wI0xbI7yhX1SX-17" value="" style="endArrow=none;html=1;rounded=0;entryX=0.25;entryY=0;entryDx=0;entryDy=0;exitX=1;exitY=0.5;exitDx=0;exitDy=0;" edge="1" parent="1" source="JqmU150wI0xbI7yhX1SX-6">
          <mxGeometry width="50" height="50" relative="1" as="geometry">
            <mxPoint x="485.5" y="880" as="sourcePoint" />
            <mxPoint x="560.125" y="900" as="targetPoint" />
            <Array as="points">
              <mxPoint x="520" y="875" />
              <mxPoint x="560" y="875" />
            </Array>
          </mxGeometry>
        </mxCell>
        <mxCell id="JqmU150wI0xbI7yhX1SX-38" value="" style="edgeStyle=orthogonalEdgeStyle;rounded=0;orthogonalLoop=1;jettySize=auto;html=1;" edge="1" parent="1" source="JqmU150wI0xbI7yhX1SX-19" target="JqmU150wI0xbI7yhX1SX-37">
          <mxGeometry relative="1" as="geometry" />
        </mxCell>
        <mxCell id="JqmU150wI0xbI7yhX1SX-19" value="Menggunakan&lt;div&gt;rumus invers matrix&lt;/div&gt;" style="rounded=0;whiteSpace=wrap;html=1;" vertex="1" parent="1">
          <mxGeometry x="210" y="950" width="120" height="60" as="geometry" />
        </mxCell>
        <mxCell id="JqmU150wI0xbI7yhX1SX-20" value="&lt;font style=&quot;font-size: 10px;&quot;&gt;if input != float&lt;/font&gt;" style="rhombus;whiteSpace=wrap;html=1;" vertex="1" parent="1">
          <mxGeometry x="379" y="430" width="94" height="90" as="geometry" />
        </mxCell>
        <mxCell id="JqmU150wI0xbI7yhX1SX-29" style="edgeStyle=orthogonalEdgeStyle;rounded=0;orthogonalLoop=1;jettySize=auto;html=1;entryX=0;entryY=0.5;entryDx=0;entryDy=0;" edge="1" parent="1" source="JqmU150wI0xbI7yhX1SX-26" target="pBWiBaH7_3x2LlP5s_Fs-9">
          <mxGeometry relative="1" as="geometry">
            <Array as="points">
              <mxPoint x="250" y="475" />
              <mxPoint x="250" y="320" />
            </Array>
          </mxGeometry>
        </mxCell>
        <mxCell id="JqmU150wI0xbI7yhX1SX-26" value="yes" style="text;html=1;align=center;verticalAlign=middle;whiteSpace=wrap;rounded=0;" vertex="1" parent="1">
          <mxGeometry x="280" y="460" width="60" height="30" as="geometry" />
        </mxCell>
        <mxCell id="JqmU150wI0xbI7yhX1SX-28" value="" style="endArrow=none;html=1;rounded=0;entryX=0;entryY=0.5;entryDx=0;entryDy=0;" edge="1" parent="1" source="JqmU150wI0xbI7yhX1SX-26" target="JqmU150wI0xbI7yhX1SX-20">
          <mxGeometry width="50" height="50" relative="1" as="geometry">
            <mxPoint x="330" y="530" as="sourcePoint" />
            <mxPoint x="380" y="480" as="targetPoint" />
          </mxGeometry>
        </mxCell>
        <mxCell id="JqmU150wI0xbI7yhX1SX-36" value="" style="edgeStyle=orthogonalEdgeStyle;rounded=0;orthogonalLoop=1;jettySize=auto;html=1;" edge="1" parent="1" source="JqmU150wI0xbI7yhX1SX-30" target="JqmU150wI0xbI7yhX1SX-3">
          <mxGeometry relative="1" as="geometry" />
        </mxCell>
        <mxCell id="JqmU150wI0xbI7yhX1SX-30" value="no" style="text;html=1;align=center;verticalAlign=middle;whiteSpace=wrap;rounded=0;" vertex="1" parent="1">
          <mxGeometry x="395" y="560" width="60" height="30" as="geometry" />
        </mxCell>
        <mxCell id="JqmU150wI0xbI7yhX1SX-33" value="" style="endArrow=none;html=1;rounded=0;entryX=0.5;entryY=1;entryDx=0;entryDy=0;" edge="1" parent="1" source="JqmU150wI0xbI7yhX1SX-30" target="JqmU150wI0xbI7yhX1SX-20">
          <mxGeometry width="50" height="50" relative="1" as="geometry">
            <mxPoint x="365.5" y="570" as="sourcePoint" />
            <mxPoint x="415.5" y="520" as="targetPoint" />
          </mxGeometry>
        </mxCell>
        <mxCell id="JqmU150wI0xbI7yhX1SX-41" style="edgeStyle=orthogonalEdgeStyle;rounded=0;orthogonalLoop=1;jettySize=auto;html=1;" edge="1" parent="1" source="JqmU150wI0xbI7yhX1SX-37" target="JqmU150wI0xbI7yhX1SX-12">
          <mxGeometry relative="1" as="geometry">
            <Array as="points">
              <mxPoint x="270" y="1150" />
              <mxPoint x="425" y="1150" />
            </Array>
          </mxGeometry>
        </mxCell>
        <mxCell id="JqmU150wI0xbI7yhX1SX-37" value="Menyimpan hasil&amp;nbsp;&lt;div&gt;invers matrix&amp;nbsp;&lt;/div&gt;" style="whiteSpace=wrap;html=1;rounded=0;" vertex="1" parent="1">
          <mxGeometry x="210" y="1050" width="120" height="60" as="geometry" />
        </mxCell>
      </root>
    </mxGraphModel>
  </diagram>
</mxfile>
